<mxfile host="app.diagrams.net" modified="2023-11-14T09:17:06.747Z" agent="Mozilla/5.0 (X11; Ubuntu; Linux x86_64; rv:109.0) Gecko/20100101 Firefox/119.0" version="22.1.0" etag="Az6U58fjvYC-pt9d3w9s" type="github">
  <diagram name="PÃ¡gina-1" id="msA1v8IWg7rP47zyMmve">
    <mxGraphModel>
      <root>
        <mxCell id="0" />
        <mxCell id="1" parent="0" />
      </root>
    </mxGraphModel>
  </diagram>
</mxfile>
